# xmcd
#
# Track frame offsets: 
#        150
#        6136
#        24077
#        42397
#        61130
#        82880
#        105166
#        125419
#        144416
#        163982
#        180576
#        203562
#
# Disc length: 2980 seconds
#
# Revision: 0
# Processed by: cddbd v1.5.2PL0 Copyright (c) Steve Scherf et al.
# Submitted via: ExactAudioCopy v1.0b3
#
DISCID=8a0ba20c
DTITLE=RHYMESTER - ダーティーサイエンス
DYEAR=2013
DGENRE=Hip-Hop
TTITLE0=ダーティー
TTITLE1=ゆめのしま
TTITLE2=スクリーム
TTITLE3=ドサンピンブルース feat. キエるマキュウ
TTITLE4=ダーティーサイエンス
TTITLE5=グラキャビ
TTITLE6=ナイスミドル
TTITLE7=サバイバー
TTITLE8=Deejay Deejay
TTITLE9=ノーサイド
TTITLE10=It's A New Day
TTITLE11=The Choice Is Yours
EXTD=
EXTT0=
EXTT1=
EXTT2=
EXTT3=
EXTT4=
EXTT5=
EXTT6=
EXTT7=
EXTT8=
EXTT9=
EXTT10=
EXTT11=
PLAYORDER=
